<?xml version="1.0" encoding="iso-8859-1"?>
<!-- Generator: Adobe Illustrator 21.0.0, SVG Export Plug-In . SVG Version: 6.00 Build 0)  -->
<svg version="1.1" id="&#xB808;&#xC774;&#xC5B4;_1" xmlns="http://www.w3.org/2000/svg" xmlns:xlink="http://www.w3.org/1999/xlink"
	 x="0px" y="0px" viewBox="0 0 595.28 841.89" style="enable-background:new 0 0 595.28 841.89;" xml:space="preserve">
<g id="&#xB808;&#xC774;&#xC5B4;_1_1_" style="display:none;">
	<g style="display:inline;">
		
			<image style="overflow:visible;enable-background:new    ;" width="142" height="142" xlink:href="KakaoTalk_Photo_2019-08-29-18-07-11.png"  transform="matrix(1 0 0 1 227 349.89)">
		</image>
	</g>
</g>
<g id="&#xB808;&#xC774;&#xC5B4;_2">
	<polygon style="fill:#B8C9F5;" points="282.388,407.691 299.694,417.675 352.825,385.926 299.044,352.628 240.214,387.799 
		240.214,454.762 299.738,488.607 355.786,456.38 355.451,389.856 302.001,421.698 301.997,444.948 340.116,423.585 
		340.116,446.146 298.945,468.431 257.274,444.947 257.274,399.08 297.795,372.961 318.279,385.667 	"/>
	<polygon style="fill:#FF3A7D;" points="280.413,412.288 296.976,421.925 296.976,444.948 280.413,434.891 	"/>
</g>
<g id="&#xB808;&#xC774;&#xC5B4;_3" style="display:none;">
	<polygon style="display:inline;fill:#FF3A7D;" points="415.472,394.775 433.301,404.652 486.702,372.084 432.985,340.823 
		372.814,374.42 372.814,442.233 432.364,475.98 488.986,443.35 488.986,376.204 434.603,408.623 434.603,432.793 471.382,411.638 
		471.283,434.601 431.675,455.735 390.25,432.314 390.25,386.205 430.9,360.403 451.64,372.546 	"/>
</g>
</svg>
